<svg width="15" height="15" viewBox="0 0 15 15" fill="none" xmlns="http://www.w3.org/2000/svg">
<path d="M10.5 1C10.6326 1 10.7598 1.05268 10.8536 1.14645C10.9473 1.24021 11 1.36739 11 1.5V2H12.5C12.8978 2 13.2794 2.15804 13.5607 2.43934C13.842 2.72064 14 3.10218 14 3.5V12.5C14 12.8978 13.842 13.2794 13.5607 13.5607C13.2794 13.842 12.8978 14 12.5 14H2.5C2.10218 14 1.72064 13.842 1.43934 13.5607C1.15804 13.2794 1 12.8978 1 12.5V3.5C1 3.10218 1.15804 2.72064 1.43934 2.43934C1.72064 2.15804 2.10218 2 2.5 2H4V1.5C4 1.36739 4.05268 1.24021 4.14645 1.14645C4.24021 1.05268 4.36739 1 4.5 1C4.63261 1 4.75979 1.05268 4.85355 1.14645C4.94732 1.24021 5 1.36739 5 1.5V2H10V1.5C10 1.36739 10.0527 1.24021 10.1464 1.14645C10.2402 1.05268 10.3674 1 10.5 1ZM2 12.5L2.01 12.6C2.05 12.796 2.204 12.95 2.4 12.99L2.5 13H12.5L12.6 12.99C12.6961 12.9704 12.7843 12.923 12.8536 12.8536C12.923 12.7843 12.9704 12.6961 12.99 12.6L13 12.5V6H2V12.5ZM3.5 11C3.63261 11 3.75979 11.0527 3.85355 11.1464C3.94732 11.2402 4 11.3674 4 11.5C4 11.6326 3.94732 11.7598 3.85355 11.8536C3.75979 11.9473 3.63261 12 3.5 12C3.36739 12 3.24021 11.9473 3.14645 11.8536C3.05268 11.7598 3 11.6326 3 11.5C3 11.3674 3.05268 11.2402 3.14645 11.1464C3.24021 11.0527 3.36739 11 3.5 11ZM5.5 11C5.63261 11 5.75979 11.0527 5.85355 11.1464C5.94732 11.2402 6 11.3674 6 11.5C6 11.6326 5.94732 11.7598 5.85355 11.8536C5.75979 11.9473 5.63261 12 5.5 12C5.36739 12 5.24021 11.9473 5.14645 11.8536C5.05268 11.7598 5 11.6326 5 11.5C5 11.3674 5.05268 11.2402 5.14645 11.1464C5.24021 11.0527 5.36739 11 5.5 11ZM7.5 11C7.63261 11 7.75979 11.0527 7.85355 11.1464C7.94732 11.2402 8 11.3674 8 11.5C8 11.6326 7.94732 11.7598 7.85355 11.8536C7.75979 11.9473 7.63261 12 7.5 12C7.36739 12 7.24021 11.9473 7.14645 11.8536C7.05268 11.7598 7 11.6326 7 11.5C7 11.3674 7.05268 11.2402 7.14645 11.1464C7.24021 11.0527 7.36739 11 7.5 11ZM9.5 11C9.63261 11 9.75979 11.0527 9.85355 11.1464C9.94732 11.2402 10 11.3674 10 11.5C10 11.6326 9.94732 11.7598 9.85355 11.8536C9.75979 11.9473 9.63261 12 9.5 12C9.36739 12 9.24021 11.9473 9.14645 11.8536C9.05268 11.7598 9 11.6326 9 11.5C9 11.3674 9.05268 11.2402 9.14645 11.1464C9.24021 11.0527 9.36739 11 9.5 11ZM3.5 9C3.63261 9 3.75979 9.05268 3.85355 9.14645C3.94732 9.24021 4 9.36739 4 9.5C4 9.63261 3.94732 9.75979 3.85355 9.85355C3.75979 9.94732 3.63261 10 3.5 10C3.36739 10 3.24021 9.94732 3.14645 9.85355C3.05268 9.75979 3 9.63261 3 9.5C3 9.36739 3.05268 9.24021 3.14645 9.14645C3.24021 9.05268 3.36739 9 3.5 9ZM5.5 9C5.63261 9 5.75979 9.05268 5.85355 9.14645C5.94732 9.24021 6 9.36739 6 9.5C6 9.63261 5.94732 9.75979 5.85355 9.85355C5.75979 9.94732 5.63261 10 5.5 10C5.36739 10 5.24021 9.94732 5.14645 9.85355C5.05268 9.75979 5 9.63261 5 9.5C5 9.36739 5.05268 9.24021 5.14645 9.14645C5.24021 9.05268 5.36739 9 5.5 9ZM7.5 9C7.63261 9 7.75979 9.05268 7.85355 9.14645C7.94732 9.24021 8 9.36739 8 9.5C8 9.63261 7.94732 9.75979 7.85355 9.85355C7.75979 9.94732 7.63261 10 7.5 10C7.36739 10 7.24021 9.94732 7.14645 9.85355C7.05268 9.75979 7 9.63261 7 9.5C7 9.36739 7.05268 9.24021 7.14645 9.14645C7.24021 9.05268 7.36739 9 7.5 9ZM9.5 9C9.63261 9 9.75979 9.05268 9.85355 9.14645C9.94732 9.24021 10 9.36739 10 9.5C10 9.63261 9.94732 9.75979 9.85355 9.85355C9.75979 9.94732 9.63261 10 9.5 10C9.36739 10 9.24021 9.94732 9.14645 9.85355C9.05268 9.75979 9 9.63261 9 9.5C9 9.36739 9.05268 9.24021 9.14645 9.14645C9.24021 9.05268 9.36739 9 9.5 9ZM11.5 9C11.6326 9 11.7598 9.05268 11.8536 9.14645C11.9473 9.24021 12 9.36739 12 9.5C12 9.63261 11.9473 9.75979 11.8536 9.85355C11.7598 9.94732 11.6326 10 11.5 10C11.3674 10 11.2402 9.94732 11.1464 9.85355C11.0527 9.75979 11 9.63261 11 9.5C11 9.36739 11.0527 9.24021 11.1464 9.14645C11.2402 9.05268 11.3674 9 11.5 9ZM7.5 7C7.63261 7 7.75979 7.05268 7.85355 7.14645C7.94732 7.24021 8 7.36739 8 7.5C8 7.63261 7.94732 7.75979 7.85355 7.85355C7.75979 7.94732 7.63261 8 7.5 8C7.36739 8 7.24021 7.94732 7.14645 7.85355C7.05268 7.75979 7 7.63261 7 7.5C7 7.36739 7.05268 7.24021 7.14645 7.14645C7.24021 7.05268 7.36739 7 7.5 7ZM9.5 7C9.63261 7 9.75979 7.05268 9.85355 7.14645C9.94732 7.24021 10 7.36739 10 7.5C10 7.63261 9.94732 7.75979 9.85355 7.85355C9.75979 7.94732 9.63261 8 9.5 8C9.36739 8 9.24021 7.94732 9.14645 7.85355C9.05268 7.75979 9 7.63261 9 7.5C9 7.36739 9.05268 7.24021 9.14645 7.14645C9.24021 7.05268 9.36739 7 9.5 7ZM11.5 7C11.6326 7 11.7598 7.05268 11.8536 7.14645C11.9473 7.24021 12 7.36739 12 7.5C12 7.63261 11.9473 7.75979 11.8536 7.85355C11.7598 7.94732 11.6326 8 11.5 8C11.3674 8 11.2402 7.94732 11.1464 7.85355C11.0527 7.75979 11 7.63261 11 7.5C11 7.36739 11.0527 7.24021 11.1464 7.14645C11.2402 7.05268 11.3674 7 11.5 7ZM2.4 3.01C2.28706 3.03305 2.18556 3.09442 2.11267 3.18371C2.03978 3.273 1.99998 3.38473 2 3.5V5H13V3.5C13 3.38473 12.9602 3.273 12.8873 3.18371C12.8144 3.09442 12.7129 3.03305 12.6 3.01L12.5 3H11V3.5C11 3.63261 10.9473 3.75979 10.8536 3.85355C10.7598 3.94732 10.6326 4 10.5 4C10.3674 4 10.2402 3.94732 10.1464 3.85355C10.0527 3.75979 10 3.63261 10 3.5V3H5V3.5C5 3.63261 4.94732 3.75979 4.85355 3.85355C4.75979 3.94732 4.63261 4 4.5 4C4.36739 4 4.24021 3.94732 4.14645 3.85355C4.05268 3.75979 4 3.63261 4 3.5V3H2.5L2.4 3.01Z" fill="black"/>
</svg>
