<svg width="20" height="20" viewBox="0 0 20 20" fill="none" xmlns="http://www.w3.org/2000/svg">
<path d="M8.55664 17.5C8.70293 17.7533 8.91332 17.9637 9.16668 18.11C9.42003 18.2563 9.70743 18.3333 9.99997 18.3333C10.2925 18.3333 10.5799 18.2563 10.8333 18.11C11.0866 17.9637 11.297 17.7533 11.4433 17.5" stroke="#4A5565" stroke-width="1.66667" stroke-linecap="round" stroke-linejoin="round"/>
<path d="M2.71821 12.772C2.60935 12.8913 2.53751 13.0397 2.51143 13.1991C2.48534 13.3585 2.50615 13.522 2.5713 13.6698C2.63646 13.8176 2.74316 13.9433 2.87843 14.0316C3.01369 14.1198 3.1717 14.1669 3.33321 14.167H16.6665C16.828 14.167 16.9861 14.1202 17.1214 14.0321C17.2568 13.944 17.3636 13.8184 17.429 13.6708C17.4943 13.5231 17.5153 13.3596 17.4894 13.2001C17.4635 13.0407 17.3919 12.8923 17.2832 12.7728C16.1749 11.6303 14.9999 10.4162 14.9999 6.66699C14.9999 5.34091 14.4731 4.06914 13.5354 3.13146C12.5977 2.19378 11.326 1.66699 9.99988 1.66699C8.6738 1.66699 7.40203 2.19378 6.46435 3.13146C5.52666 4.06914 4.99988 5.34091 4.99988 6.66699C4.99988 10.4162 3.82405 11.6303 2.71821 12.772Z" stroke="#4A5565" stroke-width="1.66667" stroke-linecap="round" stroke-linejoin="round"/>
</svg>
