<svg width="32" height="32" viewBox="0 0 32 32" fill="none" xmlns="http://www.w3.org/2000/svg">
<path d="M5.33337 14.6674V25.3341C5.33337 26.6674 5.86667 27.2008 7.20002 27.2008H24.8C26.1334 27.2008 26.6667 26.6674 26.6667 25.3341V14.6674C26.6667 13.3341 26.1334 12.8008 24.8 12.8008H7.20002C5.86667 12.8008 5.33337 13.3341 5.33337 14.6674Z" fill="#1E3A5F"/>
<path d="M21.8667 23.4668H10.1334C9.69152 23.4668 9.33337 23.825 9.33337 24.2668C9.33337 24.7086 9.69152 25.0668 10.1334 25.0668H21.8667C22.3085 25.0668 22.6667 24.7086 22.6667 24.2668C22.6667 23.825 22.3085 23.4668 21.8667 23.4668Z" fill="#3B82F6"/>
<path d="M9.33337 6.66699V20.0003C9.33337 20.5337 9.60002 20.8003 10.1334 20.8003H21.8667C22.4 20.8003 22.6667 20.5337 22.6667 20.0003V9.33369L20 6.66699H9.33337Z" fill="white" stroke="#D1D5DB" stroke-width="0.533335"/>
<path d="M20 6.66699V9.33369H22.6667L20 6.66699Z" fill="#3B82F6"/>
<path d="M12 12H18.6667" stroke="#9CA3AF" stroke-width="0.533335" stroke-linecap="round"/>
<path d="M12 13.8672H20" stroke="#9CA3AF" stroke-width="0.533335" stroke-linecap="round"/>
<path d="M12 15.7334H18.6667" stroke="#9CA3AF" stroke-width="0.533335" stroke-linecap="round"/>
<path d="M12 17.6006H17.3333" stroke="#9CA3AF" stroke-width="0.533335" stroke-linecap="round"/>
</svg>
