<svg width="24" height="24" viewBox="0 0 24 24" fill="none" xmlns="http://www.w3.org/2000/svg">
<path d="M14.5358 21.6856C14.5738 21.7803 14.6398 21.861 14.7251 21.9171C14.8103 21.9732 14.9107 22.0018 15.0126 21.9992C15.1146 21.9966 15.2134 21.9628 15.2956 21.9025C15.3779 21.8421 15.4397 21.7581 15.4728 21.6616L21.9728 2.66157C22.0048 2.57296 22.0109 2.47707 21.9904 2.38512C21.9699 2.29317 21.9236 2.20896 21.857 2.14235C21.7904 2.07573 21.7062 2.02946 21.6143 2.00896C21.5223 1.98846 21.4264 1.99456 21.3378 2.02657L2.33781 8.52657C2.2413 8.55966 2.15723 8.62149 2.09688 8.70374C2.03652 8.78599 2.00278 8.88474 2.00016 8.98673C1.99755 9.08871 2.0262 9.18906 2.08226 9.27429C2.13833 9.35953 2.21912 9.42558 2.31381 9.46357L10.2438 12.6436C10.4945 12.7439 10.7223 12.894 10.9134 13.0848C11.1045 13.2756 11.255 13.5031 11.3558 13.7536L14.5358 21.6856Z" stroke="#9810FA" stroke-width="2" stroke-linecap="round" stroke-linejoin="round"/>
<path d="M21.8541 2.14746L10.9141 13.0865" stroke="#9810FA" stroke-width="2" stroke-linecap="round" stroke-linejoin="round"/>
</svg>
