<svg width="16" height="16" viewBox="0 0 16 16" fill="none" xmlns="http://www.w3.org/2000/svg">
<path d="M6.66699 7.33301V11.333" stroke="#364153" stroke-width="1.33333" stroke-linecap="round" stroke-linejoin="round"/>
<path d="M9.33301 7.33301V11.333" stroke="#364153" stroke-width="1.33333" stroke-linecap="round" stroke-linejoin="round"/>
<path d="M12.6663 4V13.3333C12.6663 13.687 12.5259 14.0261 12.2758 14.2761C12.0258 14.5262 11.6866 14.6667 11.333 14.6667H4.66634C4.31272 14.6667 3.97358 14.5262 3.72353 14.2761C3.47348 14.0261 3.33301 13.687 3.33301 13.3333V4" stroke="#364153" stroke-width="1.33333" stroke-linecap="round" stroke-linejoin="round"/>
<path d="M2 4H14" stroke="#364153" stroke-width="1.33333" stroke-linecap="round" stroke-linejoin="round"/>
<path d="M5.33301 3.99967V2.66634C5.33301 2.31272 5.47348 1.97358 5.72353 1.72353C5.97358 1.47348 6.31272 1.33301 6.66634 1.33301H9.33301C9.68663 1.33301 10.0258 1.47348 10.2758 1.72353C10.5259 1.97358 10.6663 2.31272 10.6663 2.66634V3.99967" stroke="#364153" stroke-width="1.33333" stroke-linecap="round" stroke-linejoin="round"/>
</svg>
