<svg width="56" height="56" viewBox="0 0 56 56" fill="none" xmlns="http://www.w3.org/2000/svg">
<path d="M25.7062 6.56605C25.8062 6.03079 26.0902 5.54736 26.5091 5.19946C26.928 4.85157 27.4554 4.66113 27.9999 4.66113C28.5444 4.66113 29.0718 4.85157 29.4907 5.19946C29.9095 5.54736 30.1936 6.03079 30.2936 6.56605L32.7459 19.5347C32.9201 20.4567 33.3681 21.3048 34.0316 21.9683C34.6951 22.6318 35.5432 23.0799 36.4652 23.2541L49.4339 25.7064C49.9691 25.8064 50.4526 26.0904 50.8005 26.5093C51.1484 26.9282 51.3388 27.4555 51.3388 28.0001C51.3388 28.5446 51.1484 29.0719 50.8005 29.4908C50.4526 29.9097 49.9691 30.1937 49.4339 30.2937L36.4652 32.7461C35.5432 32.9202 34.6951 33.3683 34.0316 34.0318C33.3681 34.6953 32.9201 35.5434 32.7459 36.4654L30.2936 49.4341C30.1936 49.9693 29.9095 50.4527 29.4907 50.8006C29.0718 51.1485 28.5444 51.339 27.9999 51.339C27.4554 51.339 26.928 51.1485 26.5091 50.8006C26.0902 50.4527 25.8062 49.9693 25.7062 49.4341L23.2539 36.4654C23.0797 35.5434 22.6316 34.6953 21.9681 34.0318C21.3047 33.3683 20.4566 32.9202 19.5346 32.7461L6.56589 30.2937C6.03063 30.1937 5.54719 29.9097 5.1993 29.4908C4.8514 29.0719 4.66096 28.5446 4.66096 28.0001C4.66096 27.4555 4.8514 26.9282 5.1993 26.5093C5.54719 26.0904 6.03063 25.8064 6.56589 25.7064L19.5346 23.2541C20.4566 23.0799 21.3047 22.6318 21.9681 21.9683C22.6316 21.3048 23.0797 20.4567 23.2539 19.5347L25.7062 6.56605Z" stroke="#374151" stroke-width="4.66667" stroke-linecap="round" stroke-linejoin="round"/>
<path d="M46.6667 4.6665V13.9998" stroke="#374151" stroke-width="4.66667" stroke-linecap="round" stroke-linejoin="round"/>
<path d="M51.3333 9.3335H42" stroke="#374151" stroke-width="4.66667" stroke-linecap="round" stroke-linejoin="round"/>
<path d="M9.33334 51.3333C11.9107 51.3333 14 49.244 14 46.6667C14 44.0893 11.9107 42 9.33334 42C6.75601 42 4.66667 44.0893 4.66667 46.6667C4.66667 49.244 6.75601 51.3333 9.33334 51.3333Z" stroke="#374151" stroke-width="4.66667" stroke-linecap="round" stroke-linejoin="round"/>
</svg>
