<svg width="16" height="16" viewBox="0 0 16 16" fill="none" xmlns="http://www.w3.org/2000/svg">
<path d="M2.66663 7.33301V2.66635C2.66663 2.31272 2.8071 1.97359 3.05715 1.72354C3.3072 1.47349 3.64634 1.33301 3.99996 1.33301H9.33329C9.54455 1.33249 9.75382 1.37382 9.94903 1.4546C10.1442 1.53538 10.3215 1.65403 10.4706 1.80368L12.8626 4.19568C13.0123 4.34479 13.1309 4.52207 13.2117 4.71728C13.2925 4.91248 13.3338 5.12175 13.3333 5.33301V13.333C13.3333 13.6866 13.1928 14.0258 12.9428 14.2758C12.6927 14.5259 12.3536 14.6663 12 14.6663H3.99996C3.64634 14.6663 3.3072 14.5259 3.05715 14.2758C2.8071 14.0258 2.66663 13.6866 2.66663 13.333V12.6663" stroke="#4A5565" stroke-width="1.33333" stroke-linecap="round" stroke-linejoin="round"/>
<path d="M9.33337 1.33301V4.66634C9.33337 4.84315 9.40361 5.01272 9.52864 5.13775C9.65366 5.26277 9.82323 5.33301 10 5.33301H13.3334" stroke="#4A5565" stroke-width="1.33333" stroke-linecap="round" stroke-linejoin="round"/>
<path d="M1.33337 10H8.00004" stroke="#4A5565" stroke-width="1.33333" stroke-linecap="round" stroke-linejoin="round"/>
<path d="M6 12L8 10L6 8" stroke="#4A5565" stroke-width="1.33333" stroke-linecap="round" stroke-linejoin="round"/>
</svg>
