<svg width="20" height="20" viewBox="0 0 20 20" fill="none" xmlns="http://www.w3.org/2000/svg">
<g clip-path="url(#clip0_38_117)">
<path d="M12.1133 18.0721C12.1449 18.151 12.2 18.2184 12.271 18.2651C12.342 18.3118 12.4256 18.3357 12.5106 18.3335C12.5956 18.3313 12.6779 18.3032 12.7464 18.2529C12.815 18.2026 12.8665 18.1325 12.8941 18.0521L18.3108 2.21879C18.3374 2.14495 18.3425 2.06504 18.3254 1.98842C18.3083 1.91179 18.2698 1.84161 18.2143 1.7861C18.1588 1.73059 18.0886 1.69203 18.012 1.67495C17.9353 1.65786 17.8554 1.66295 17.7816 1.68962L1.94825 7.10629C1.86783 7.13387 1.79777 7.18539 1.74748 7.25393C1.69718 7.32247 1.66906 7.40476 1.66688 7.48975C1.66471 7.57474 1.68858 7.65836 1.7353 7.72939C1.78202 7.80042 1.84935 7.85546 1.92825 7.88712L8.53659 10.5371C8.74549 10.6208 8.9353 10.7458 9.09456 10.9048C9.25382 11.0638 9.37924 11.2534 9.46325 11.4621L12.1133 18.0721Z" stroke="#00A63E" stroke-width="1.66667" stroke-linecap="round" stroke-linejoin="round"/>
<path d="M18.2116 1.78906L9.09497 10.9049" stroke="#00A63E" stroke-width="1.66667" stroke-linecap="round" stroke-linejoin="round"/>
</g>
<defs>
<clipPath id="clip0_38_117">
<rect width="20" height="20" fill="white"/>
</clipPath>
</defs>
</svg>
