<svg width="16" height="16" viewBox="0 0 16 16" fill="none" xmlns="http://www.w3.org/2000/svg">
<path d="M3.99996 14.6663C3.64634 14.6663 3.3072 14.5259 3.05715 14.2758C2.8071 14.0258 2.66663 13.6866 2.66663 13.333V2.66634C2.66663 2.31272 2.8071 1.97358 3.05715 1.72353C3.3072 1.47349 3.64634 1.33301 3.99996 1.33301H9.33329C9.54433 1.33267 9.75335 1.37408 9.94831 1.45486C10.1433 1.53563 10.3203 1.65418 10.4693 1.80368L12.8613 4.19568C13.0112 4.34468 13.1301 4.52191 13.2111 4.71712C13.2921 4.91233 13.3336 5.12166 13.3333 5.33301V13.333C13.3333 13.6866 13.1928 14.0258 12.9428 14.2758C12.6927 14.5259 12.3536 14.6663 12 14.6663H3.99996Z" stroke="#4A5565" stroke-width="1.33333" stroke-linecap="round" stroke-linejoin="round"/>
<path d="M9.33337 1.33301V4.66634C9.33337 4.84315 9.40361 5.01272 9.52864 5.13775C9.65366 5.26277 9.82323 5.33301 10 5.33301H13.3334" stroke="#4A5565" stroke-width="1.33333" stroke-linecap="round" stroke-linejoin="round"/>
<path d="M6.66671 6H5.33337" stroke="#4A5565" stroke-width="1.33333" stroke-linecap="round" stroke-linejoin="round"/>
<path d="M10.6667 8.66699H5.33337" stroke="#4A5565" stroke-width="1.33333" stroke-linecap="round" stroke-linejoin="round"/>
<path d="M10.6667 11.333H5.33337" stroke="#4A5565" stroke-width="1.33333" stroke-linecap="round" stroke-linejoin="round"/>
</svg>
